<?xml version="1.0" encoding="utf-8"?>
<!-- Generator: Adobe Illustrator 22.1.0, SVG Export Plug-In . SVG Version: 6.00 Build 0)  -->
<svg version="1.1" id="main" xmlns="http://www.w3.org/2000/svg" xmlns:xlink="http://www.w3.org/1999/xlink" x="0px" y="0px"
	 viewBox="0 0 16 16" style="enable-background:new 0 0 16 16;" xml:space="preserve">
<style type="text/css">
	.st0{fill:#FFFFFF;}
	.st1{fill:#989898;}
	.st2{clip-path:url(#SVGID_2_);}
	.st3{clip-path:url(#SVGID_4_);}
	.st4{clip-path:url(#SVGID_6_);}
	.st5{clip-path:url(#SVGID_8_);}
	.st6{clip-path:url(#SVGID_10_);}
	.st7{clip-path:url(#SVGID_12_);}
	.st8{clip-path:url(#SVGID_14_);}
	.st9{clip-path:url(#SVGID_16_);}
	.st10{fill:#C20000;}
	.st11{clip-path:url(#SVGID_18_);}
	.st12{clip-path:url(#SVGID_20_);}
	.st13{clip-path:url(#SVGID_22_);}
	.st14{clip-path:url(#SVGID_24_);}
</style>
<g>
	<path class="st0" d="M5.8,6.8C6,6.4,6.3,6.2,6.7,6c0.3-0.2,0.7-0.2,1-0.2c0.2,0,0.4,0,0.7,0.1V5C7.6,4.9,7,5,6.3,5.3
		C5.6,5.7,5.1,6.2,4.8,7c0,0.1,0,0.1,0,0.2h0.8C5.6,7,5.7,6.9,5.8,6.8z"/>
	<path class="st0" d="M11.3,11c-0.4,0.5-1,0.9-1.6,1.2c-0.7,0.3-1.4,0.5-2,0.5V16h7.1v-7h-2.7L12.4,9C12.1,9.9,11.7,10.6,11.3,11z"
		/>
	<path class="st0" d="M3.4,10.1C3,9.3,2.9,8.5,2.9,7.7c0,0,0,0,0,0H0.1v7h7.1v-1.9c-0.4,0-0.8-0.1-1.1-0.2C4.9,12.1,4,11.3,3.4,10.1
		z"/>
	<path class="st0" d="M8.4,7L8.4,7C7.9,6.9,7.5,6.9,7.2,7c-0.1,0-0.1,0.1-0.1,0.1L8.4,7"/>
	<path class="st0" d="M6.7,8.5c0.1,0.2,0.2,0.4,0.4,0.5c0,0,0.1,0,0.1,0.1V7.6H6.6c0,0,0,0,0,0C6.5,7.9,6.5,8.2,6.7,8.5z"/>
	<path class="st0" d="M8.3,8.9H7.6v0.2c0.2,0,0.3,0,0.5-0.1C8.2,9,8.2,8.9,8.3,8.9z"/>
	<path class="st0" d="M5.7,3.8C6.3,3.5,7,3.3,7.8,3.3c0.2,0,0.4,0,0.6,0V0H1.2v7.1H3C3.1,6.5,3.4,6,3.8,5.4C4.3,4.7,4.9,4.2,5.7,3.8
		z"/>
	<path class="st0" d="M9.3,5.3C9.2,5.2,9,5.2,8.8,5.1V6L8.9,6L8.8,6.4v1.9c0,0,0-0.1,0-0.1l0.1-0.2L10,8.3L10,8.4h0.9c0,0,0,0,0,0
		l0.1,0h5V1.3H8.8v2.1c0.4,0.1,0.7,0.2,1.1,0.3L9.3,5.3z"/>
	<path class="st0" d="M6.9,10.2C6.3,10,5.9,9.6,5.6,9C5.4,8.6,5.3,8.2,5.4,7.8c0-0.1,0-0.1,0-0.2H4.7c-0.1,0.6,0,1.1,0.3,1.7
		c0.3,0.5,0.6,0.9,1,1.3C6.3,10.8,6.7,11,7.2,11v-0.8C7.1,10.2,7,10.2,6.9,10.2z"/>
	<path class="st0" d="M9.4,9.5C9.2,9.7,9,9.9,8.6,10.1c-0.3,0.2-0.7,0.2-1,0.2v0.8c0.5,0,0.9-0.1,1.4-0.3c0.4-0.2,0.8-0.5,1.1-0.8
		c0.2-0.3,0.4-0.6,0.6-1H9.8C9.7,9.1,9.6,9.3,9.4,9.5z"/>
</g>
</svg>
