<?xml version="1.0" encoding="utf-8"?>
<!-- Generator: Adobe Illustrator 22.1.0, SVG Export Plug-In . SVG Version: 6.00 Build 0)  -->
<svg version="1.1" id="main" xmlns="http://www.w3.org/2000/svg" xmlns:xlink="http://www.w3.org/1999/xlink" x="0px" y="0px"
	 viewBox="0 0 16 16" style="enable-background:new 0 0 16 16;" xml:space="preserve">
<style type="text/css">
	.st0{fill:#FFFFFF;}
	.st1{fill:#989898;}
	.st2{clip-path:url(#SVGID_2_);}
	.st3{clip-path:url(#SVGID_4_);}
	.st4{clip-path:url(#SVGID_6_);}
	.st5{clip-path:url(#SVGID_8_);}
	.st6{clip-path:url(#SVGID_10_);}
	.st7{clip-path:url(#SVGID_12_);}
	.st8{clip-path:url(#SVGID_14_);}
	.st9{clip-path:url(#SVGID_16_);}
	.st10{fill:#C20000;}
	.st11{clip-path:url(#SVGID_18_);}
	.st12{clip-path:url(#SVGID_20_);}
	.st13{clip-path:url(#SVGID_22_);}
	.st14{clip-path:url(#SVGID_24_);}
</style>
<g>
	<path class="st0" d="M13.7,3.9L13.7,3.9L13.7,3.9C13.7,3.9,13.7,3.9,13.7,3.9c-0.9-1.2-2.1-2.1-3.5-2.6l0,0C9.5,1.1,8.8,1,8,1
		C7.2,1,6.5,1.1,5.8,1.3l0,0C4.4,1.8,3.2,2.7,2.3,3.9l0,0C1.5,5.1,1,6.5,1,8v0v0c0,1.6,0.5,3,1.4,4.2c0.8,1.1,2,2,3.4,2.5
		c0,0,0,0,0,0l0,0l0,0C6.5,14.9,7.2,15,8,15c0.8,0,1.5-0.1,2.2-0.4c1.4-0.5,2.6-1.3,3.4-2.5l0,0C14.5,11,15,9.6,15,8v0v0
		C15,6.5,14.5,5.1,13.7,3.9z M8.2,3.1l1.3-0.9c0.1,0,0.2,0.1,0.3,0.1l0,0c1.2,0.4,2.3,1.2,3.1,2.2l0,0c0.1,0.1,0.1,0.2,0.2,0.3
		l-0.5,1.5L9.9,7.2L8.2,6L8.2,3.1L8.2,3.1z M3.1,4.5L3.1,4.5c0.7-1,1.8-1.8,3.1-2.2l0,0c0.1,0,0.2-0.1,0.3-0.1l1.3,0.9V6L6.1,7.2
		L3.4,6.3L2.9,4.8C2.9,4.7,3,4.6,3.1,4.5z M3.4,11.9c-0.1-0.1-0.2-0.2-0.2-0.3l0,0c-0.8-1-1.2-2.3-1.2-3.6v0c0-0.1,0-0.2,0-0.4
		l1.3-0.9L6,7.6l0.6,1.9l-1.7,2.4L3.4,11.9L3.4,11.9z M10.2,13.6c-0.1,0-0.2,0.1-0.3,0.1l0,0C9.3,14,8.7,14.1,8,14.1
		c-0.7,0-1.3-0.1-1.9-0.3l0,0c-0.1,0-0.2-0.1-0.3-0.1l-0.5-1.5L7,9.8h2l1.7,2.4L10.2,13.6z M14.1,8c0,1.4-0.4,2.6-1.2,3.6l0,0
		c-0.1,0.1-0.1,0.2-0.2,0.3h-1.6L9.4,9.5L10,7.6l2.8-0.9L14,7.6C14.1,7.8,14.1,7.9,14.1,8L14.1,8L14.1,8z"/>
	<path class="st0" d="M10.2,14.6C10.2,14.6,10.2,14.6,10.2,14.6C10.2,14.6,10.2,14.6,10.2,14.6L10.2,14.6z"/>
</g>
</svg>
