<svg enable-background="new 0 0 16 16" viewBox="0 0 16 16" xmlns="http://www.w3.org/2000/svg"><g fill="#fff"><path d="m9.5 13.5c-.3-.4-.6-.7-1-1.1 0 0-.1-.1-.1-.1-.1.1-.2.2-.3.3-.2-.3-.5-.4-.9-.4 0-.6-.4-1.1-1.2-1.2 0-.3-.1-.6-.3-.9-.2-.2-.4-.4-.8-.4-.2-1-.7-1.4-1.6-1.1-.2-.5-.4-1-.6-1.5.2-.2.5-.5.8-.7.9-.8 1.8-1.7 2.7-2.5 0 0 .1-.1.2-.1.5 0 .8.2 1.2.5-.3.3-.6.5-.8.8-.3.3-.6.6-.9.9-.3.4-.4.8-.2 1.3.1.2.3.3.4.5.2.1.3.2.5.3.3 0 .6 0 .8-.2.2-.1.3-.2.5-.3s.3-.2.5-.4c.3-.2.6-.5.9-.8 0 0 0 0 .1-.1.2.3.5.5.7.8.8.9 1.5 1.8 2.3 2.7.2.2.3.4.5.6l-.9.9c-.3-.4-.7-.7-1-1.1 0 0 0-.1-.1-.1-.1.1-.3.2-.4.4.2.2.3.3.4.5.2.2.4.5.7.7l-.9.8c-.3-.4-.7-.7-1-1.1 0 0-.1-.1-.1-.1-.1.1-.3.2-.4.4.2.3.5.5.7.8.1.1.2.3.4.4z"/><path d="m1.6 7.3c-.5-.6-1.1-1.2-1.6-1.8 1.5-1.4 3.1-2.8 4.6-4.2.5.6 1.1 1.2 1.6 1.8-1.5 1.4-3 2.8-4.6 4.2z"/><path d="m16 5.9c-.6.5-1.2 1.1-1.8 1.6-1.4-1.5-2.8-3-4.2-4.6.6-.5 1.2-1.1 1.8-1.6 1.4 1.5 2.8 3.1 4.2 4.6z"/><path d="m13.2 7.3c-.3.5-.6 1-.9 1.5-.2-.2-.3-.4-.5-.5-.7-.8-1.4-1.6-2.1-2.4-.1-.3-.3-.3-.4-.2-.5.4-.8.7-1.3 1.1-.2.2-.5.4-.7.6-.1.1-.2.1-.4.1-.2.1-.3 0-.4-.1s-.2-.2-.3-.4 0-.4.1-.6c.1-.1.2-.3.3-.4.7-.7 1.4-1.3 2.1-2 .3-.2.7-.3 1.1-.4 0 0 .1 0 .1.1.7.8 1.5 1.6 2.2 2.4.4.4.7.7 1.1 1.2-.1-.1 0-.1 0 0z"/><path d="m3.4 11.5c.4-.3.8-.8 1.2-1.1.2-.2.4-.2.6 0 .2.1.3.3.3.5 0 .1-.1.3-.2.4-.3.3-.8.7-1.2 1z"/><path d="m2.2 10.3c.2-.2.6-.5.8-.8.1-.1.3-.3.5-.4.1-.1.4-.1.6.1.1.1.2.1.2.2.1.2.1.4-.1.5-.4.4-.8.8-1.2 1.2z"/><path d="m5.8 13.9c.4-.4.7-.7 1.1-1 .2-.1.3-.2.5-.1s.4.3.4.5 0 .4-.2.5c-.3.3-.7.7-1.1 1z"/><path d="m4.6 12.8c.4-.4.8-.8 1.2-1.1.2-.2.7-.1.8.3.1.2.1.4-.1.5-.3.3-.8.8-1.2 1.1z"/><path d="m8.3 14.6c-.2-.1-.2-.2-.4-.4.4-.3.5-.7.4-1.2 0 0 .1.1.1.1.2.3.5.5.7.8z"/></g></svg>