<svg id="7d0c487f-9499-4d35-9179-206ed3a3d074" data-name="main" xmlns="http://www.w3.org/2000/svg" width="16" height="16" viewBox="0 0 16 16"><defs><style>.\33 02a017a-5592-495c-ab10-c9c1860d0575{fill:#fff;}</style></defs><title>icon-goods-white</title><polygon class="302a017a-5592-495c-ab10-c9c1860d0575" points="5.01 8.5 12.5 8.5 14.5 3.5 4.01 3.5 3.41 0.5 0 0.5 0 1.5 2.59 1.5 4.59 11.5 13 11.5 13 10.5 5.41 10.5 5.01 8.5"/><path class="302a017a-5592-495c-ab10-c9c1860d0575" d="M5.5,12A1.5,1.5,0,1,0,7,13.5,1.5,1.5,0,0,0,5.5,12Zm0,2a.5.5,0,1,1,.5-.5A.5.5,0,0,1,5.5,14Z"/><path class="302a017a-5592-495c-ab10-c9c1860d0575" d="M10.5,12A1.5,1.5,0,1,0,12,13.5,1.5,1.5,0,0,0,10.5,12Zm0,2a.5.5,0,1,1,.5-.5A.5.5,0,0,1,10.5,14Z"/></svg>