<?xml version="1.0" encoding="UTF-8"?>
<svg xmlns="http://www.w3.org/2000/svg" xmlns:xlink="http://www.w3.org/1999/xlink" viewBox="0 0 150 150" width="150px" height="150px">
<g id="surface16854023">
<path style=" stroke:none;fill-rule:nonzero;fill:rgb(100%,100%,100%);fill-opacity:1;" d="M 39 6 C 29.0625 6 21 14.0625 21 24 L 21 30 L 129 30 L 129 24 C 129 14.0625 120.9375 6 111 6 Z M 21 36 L 21 60 L 129 60 L 129 36 Z M 21 66 L 21 90 L 129 90 L 129 66 Z M 21 96 L 21 102 C 21 111.9375 29.0625 120 39 120 L 84 120 L 84 144 L 108 120 L 111 120 C 120.9375 120 129 111.9375 129 102 L 129 96 Z M 21 96 "/>
</g>
</svg>
