<svg id="cc2c265d-cc30-4fc6-8e87-c12ce264aae9" data-name="main" xmlns="http://www.w3.org/2000/svg" width="16" height="16" viewBox="0 0 16 16"><defs><style>.\32 076dd1f-b279-4e42-9de9-f54b10d21e3d{fill:#fff;}</style></defs><title>icon-presents-white</title><g id="18290784-de09-4860-877d-72c23fc2b396" data-name="icon-cup"><path class="2076dd1f-b279-4e42-9de9-f54b10d21e3d" d="M4.54,11.72h6.92v1.64H4.54Z"/><path class="2076dd1f-b279-4e42-9de9-f54b10d21e3d" d="M3.71,14.18h8.58V15H3.71Z"/><path class="2076dd1f-b279-4e42-9de9-f54b10d21e3d" d="M11.88,1.82V1H4.12v.82H1.82V5.16A2.14,2.14,0,0,0,4,7.29h.33A3.89,3.89,0,0,0,6.77,9.87v1H9.23v-1a3.89,3.89,0,0,0,2.49-2.58h.33a2.14,2.14,0,0,0,2.13-2.13V1.82ZM4,6.47A1.31,1.31,0,0,1,2.64,5.16V2.64H4.12V6.2c0,.09,0,.18,0,.27Zm9.41-1.31a1.31,1.31,0,0,1-1.31,1.31h-.18c0-.09,0-.18,0-.27V2.64h1.48V5.16Z"/></g></svg>