<svg id="c9e39460-8b89-45b5-8349-2d5c5fff068d" data-name="logo" xmlns="http://www.w3.org/2000/svg" width="104" height="104" viewBox="0 0 104 104"><defs><style>.\36 f8d8923-7a26-424a-9e5a-c790a7d37092{fill:#fff;}.\34 3747e6a-bbef-4e3a-ae7e-5f99ed37e8ba{fill:#d7000f;}.\39 87eff8b-4995-4e8b-9a38-521d9c929abe{fill:#00516d;}</style></defs><title>アートボード 1</title><g id="3391523f-05ad-451a-8d34-4d9c1ec38633" data-name="logo"><path class="6f8d8923-7a26-424a-9e5a-c790a7d37092" d="M52,104l2.39-1.76a100,100,0,0,0,9.21-7.61A101.67,101.67,0,0,0,92.93,87l1-.44-5-11.35,2.19.06,4.59-4.51-2.26-2.44,3.13-4.63L93.76,62l3.11-6.2L90,54.25l-1.69.92a54.39,54.39,0,0,0,2-14.14V19.53L74.78,15.37,73,12.46a17.91,17.91,0,0,0,4.86-5.27l1.24-2.1L77,5.47a21.54,21.54,0,0,0,1.87-3.39L79.73,0,77.55.58,74,1.52a24,24,0,0,1-5.73.71,14.82,14.82,0,0,1-3.44-.45C62.58,1.29,59.46.63,52,.63s-10.58.66-12.86,1.15a14.82,14.82,0,0,1-3.44.45A24,24,0,0,1,30,1.52L26.45.58,24.27,0l.87,2.08A21.54,21.54,0,0,0,27,5.47l-2.07-.38,1.24,2.1A17.91,17.91,0,0,0,31,12.46l-1.82,2.91L13.68,19.53V41a54.39,54.39,0,0,0,2,14.14L14,54.25,7.13,55.82,10.24,62,7.42,63.66l3.13,4.63L8.29,70.73l4.59,4.51,2.19-.06L10,86.53l1,.44A101.67,101.67,0,0,0,40.4,94.63a100,100,0,0,0,9.21,7.61Z"/><g id="d3786d2f-e054-4844-acee-29d145424562" data-name="logo"><path d="M95,64l-3,4.38,2.13,2.29L90.7,74.12l-8.27-.23,5.26,1.2L92.51,86a100.73,100.73,0,0,1-29.4,7.61,97.62,97.62,0,0,1-9.37,7.78L52,102.62l-1.74-1.27a99,99,0,0,1-9.38-7.78A100.68,100.68,0,0,1,11.5,86l4.83-10.87,5.26-1.2-8.27.23L9.83,70.69,12,68.4,9,64l2.7-1.57L8.76,56.59l5.08-1.16,3.65,2A55.3,55.3,0,0,1,14.79,41V20.38l15.13-4.06,2.68-4.25c-3.11-1.45-5.46-5.44-5.46-5.44l2.94.55c-2.24-1.53-3.92-5.53-3.92-5.53l3.53.94a25.4,25.4,0,0,0,6,.75,15.56,15.56,0,0,0,3.67-.48A53.29,53.29,0,0,1,52,1.74,53.29,53.29,0,0,1,64.63,2.86a15.56,15.56,0,0,0,3.67.48,25.4,25.4,0,0,0,6-.75l3.53-.94s-1.68,4-3.92,5.53l2.94-.55s-2.35,4-5.46,5.44l2.68,4.25,15.13,4.06V41a55.69,55.69,0,0,1-2.7,16.38l3.66-2,5.09,1.16-3,5.86Z"/><path class="6f8d8923-7a26-424a-9e5a-c790a7d37092" d="M34,73.64l-.14.6a.5.5,0,0,1,0,.44v0l-.1.44,0,.1-.09,0-.49-.12-.1,0,0-.09.1-.44v0a.5.5,0,0,1,.24-.37l.15-.6-1.39-.34-.15.6a.47.47,0,0,1,0,.44v0l-.45,1.85v0a.5.5,0,0,1-.24.37l-.15.61,1.39.33.15-.6a.47.47,0,0,1,0-.44v0l.15-.61,0-.09.1,0,.49.12.09,0,0,.09-.15.61v0a.55.55,0,0,1-.24.38l-.15.6,1.39.33.15-.6a.5.5,0,0,1,0-.44v0L35,75v0a.47.47,0,0,1,.24-.37l.14-.6Z"/><path class="6f8d8923-7a26-424a-9e5a-c790a7d37092" d="M39.3,74.63a1.62,1.62,0,0,0-1.24.14,1.13,1.13,0,0,0-.43.82l-.3,1.76c-.14.85.23,1.27,1.28,1.45a1.63,1.63,0,0,0,1.24-.14,1.22,1.22,0,0,0,.43-.82l.29-1.76C40.72,75.22,40.35,74.8,39.3,74.63Zm.16,1.19-.32,1.9A.41.41,0,0,1,39,78a.31.31,0,0,1-.25,0A.32.32,0,0,1,38.5,78a.43.43,0,0,1,0-.35l.31-1.9a.44.44,0,0,1,.16-.3.33.33,0,0,1,.26-.05.32.32,0,0,1,.23.13A.46.46,0,0,1,39.46,75.82Z"/><path class="6f8d8923-7a26-424a-9e5a-c790a7d37092" d="M45.23,75.5l-.06.58c0,.19-.05.24-.3.57l-.37.46-.2.25,0-.32.06-.54v0a.51.51,0,0,1,.19-.4l.07-.62-1.42-.14-.07.61a.47.47,0,0,1,.1.43v0l-.2,1.9v0a.5.5,0,0,1-.18.41l-.07.61,1.42.15.07-.62a.47.47,0,0,1-.1-.43v0l.07-.67v-.1h.16l0,0,.27.68,0,.07a1.24,1.24,0,0,1,.1.68l-.05.41,1.33.14.06-.6a.79.79,0,0,1-.24-.36v0l-.49-1.3,0-.05,0,0,.66-.85a.63.63,0,0,1,.29-.23l.06-.6Z"/><path class="6f8d8923-7a26-424a-9e5a-c790a7d37092" d="M50.84,76.34c0,.2,0,.25-.26.6l-.33.48-.19.27v-.33l0-.54v0a.48.48,0,0,1,.16-.41l0-.62-1.43,0,0,.62a.47.47,0,0,1,.13.42v0l-.06,1.91v0a.49.49,0,0,1-.16.41l0,.62,1.43,0,0-.62a.46.46,0,0,1-.13-.42v0l0-.67V78h.17l0,.05.32.66,0,.07a1.17,1.17,0,0,1,.15.67l0,.41,1.34,0,0-.6a.71.71,0,0,1-.27-.34v0l-.59-1.26,0,0,0,0,.6-.89a.55.55,0,0,1,.27-.25l0-.6-1.26,0Z"/><path class="6f8d8923-7a26-424a-9e5a-c790a7d37092" d="M55.6,78.85a.76.76,0,0,1,0-.15l0-.07h.07l.64,0h.08l0,.07a.66.66,0,0,1,0,.15.33.33,0,0,1-.13.3l0,.6,1.49-.09,0-.6a.71.71,0,0,1-.25-.44l-.79-3-1.73.1c-.06.46-.37,3-.37,3s0,.06,0,.1a.65.65,0,0,1-.15.41l0,.62,1.28-.08,0-.59A.33.33,0,0,1,55.6,78.85Zm0-1,.13-1.27v-.08H56l0,.08.29,1.24,0,.11h-.11l-.44,0h-.11Z"/><path class="6f8d8923-7a26-424a-9e5a-c790a7d37092" d="M60.18,76.39v0l.22,1.9v0a.5.5,0,0,1-.1.43l.07.61,1.42-.16-.07-.62a.48.48,0,0,1-.19-.4v0l-.22-1.9v0a.5.5,0,0,1,.1-.43l-.07-.61-1.42.16L60,76A.48.48,0,0,1,60.18,76.39Z"/><path class="6f8d8923-7a26-424a-9e5a-c790a7d37092" d="M67.19,78.11a1.15,1.15,0,0,0,.14-1l-.27-1.57a1.12,1.12,0,0,0-.51-.92,1.79,1.79,0,0,0-1,0l-1.72.3.1.61a.43.43,0,0,1,.24.35l.35,2a.43.43,0,0,1-.1.4l.1.6,1.77-.3A1.37,1.37,0,0,0,67.19,78.11Zm-1.35-.19-.1,0h-.1v-.09l-.42-2.39,0-.09.1,0,.1,0a.48.48,0,0,1,.37,0,.58.58,0,0,1,.19.37l.27,1.58C66.28,77.7,66.18,77.86,65.84,77.92Z"/><path class="6f8d8923-7a26-424a-9e5a-c790a7d37092" d="M72.79,76.85a1.18,1.18,0,0,0,.06-.92l-.44-1.74c-.22-.84-.73-1.07-1.75-.81a1.68,1.68,0,0,0-1.09.63,1.2,1.2,0,0,0-.06.93L70,76.67c.21.84.72,1.07,1.75.81A1.68,1.68,0,0,0,72.79,76.85Zm-1.05-.23a.28.28,0,0,1-.21.15.29.29,0,0,1-.26,0,.4.4,0,0,1-.19-.29l-.48-1.87a.44.44,0,0,1,0-.34.32.32,0,0,1,.22-.15.29.29,0,0,1,.26,0,.46.46,0,0,1,.19.29l.48,1.86A.45.45,0,0,1,71.74,76.62Z"/><path class="6f8d8923-7a26-424a-9e5a-c790a7d37092" d="M20.37,79.34l-.81,2.08-1.25-.48.31-.8s.23-.59-.18-.76-.67.46-.67.46l-1.51,3.88s-.31.69.1.89.76-.61.76-.61l.41-1,1.24.49-1,2.55a2.21,2.21,0,0,1-2,.08c-1.13-.52-1.29-1.52-.83-2.7l1.63-4.18s.72-1.94,2.29-1.39A2.6,2.6,0,0,1,20.37,79.34Z"/><path class="6f8d8923-7a26-424a-9e5a-c790a7d37092" d="M20.67,80.66a5.83,5.83,0,0,1,.6-1,1.53,1.53,0,0,1,1.82-.36c1.09.38,1.18,1.09,1.18,1.09a3.24,3.24,0,0,1-.07,1.43L22.8,86a5.8,5.8,0,0,1-.6,1.17,1.51,1.51,0,0,1-2,.47C18.94,87.18,19,86.27,19,86.27a5.59,5.59,0,0,1,.25-1.53Zm-.13,4.74s-.17.63.2.75c.52.16.7-.49.7-.49l1.36-4s.19-.63-.23-.77-.64.45-.64.45Z"/><path class="6f8d8923-7a26-424a-9e5a-c790a7d37092" d="M25.42,80.27l1.51.42-.16,4.06.23.08.57-2a.78.78,0,0,0,0-.56l.37-1.3,1.38.38-.37,1.31a1.17,1.17,0,0,0-.32.48l-1.78,6.34-1.33-.38.1-4L25.35,85l-.55,2a.84.84,0,0,0,0,.55l-.37,1.32-1.34-.39.37-1.3s.17,0,.31-.45l1.26-4.44a1,1,0,0,0,0-.66Z"/><path class="6f8d8923-7a26-424a-9e5a-c790a7d37092" d="M33.36,82.9l-.42,1.81-1.25-.28.08-.46s.18-.6-.31-.72-.59.52-.59.52a1,1,0,0,0,.31,1.1,2.24,2.24,0,0,1,1.33,2.25,5.37,5.37,0,0,1-.72,2.43,1.65,1.65,0,0,1-2,.74,2,2,0,0,1-1.5-1.2L28.77,87l1.32.3L30,88s-.14.69.32.79.59-.52.59-.52.41-1-.34-1.49-1.59-1-1.12-2.89,1.1-2.5,2.62-2.09A2.33,2.33,0,0,1,33.36,82.9Z"/><path class="6f8d8923-7a26-424a-9e5a-c790a7d37092" d="M61.3,84.23l.14,1.85-1.28.11-.06-.47s0-.62-.5-.59-.42.66-.42.66a1,1,0,0,0,.62,1c.68.21,1.71.46,1.94,1.75a5.3,5.3,0,0,1,0,2.53,1.64,1.64,0,0,1-1.69,1.3,2,2,0,0,1-1.79-.7l-.16-2.15,1.35-.11.06.68s.07.7.54.66.41-.67.41-.67.08-1.11-.77-1.32-1.81-.51-1.92-2.43.31-2.72,1.89-2.77A2.29,2.29,0,0,1,61.3,84.23Z"/><path class="6f8d8923-7a26-424a-9e5a-c790a7d37092" d="M34.9,82.57l2.1.37-.32,6.54s0,.55.13.67l-.23,1.32-1.82-.32L35,89.82s.37-.11.32-.88l-1-.2s-.29.74,0,1L34,91l-1.56-.29.23-1.32s.16-.08.32-.57Zm-.32,4.78.86.16.2-2.9-.26,0Z"/><path class="6f8d8923-7a26-424a-9e5a-c790a7d37092" d="M62.74,83.44l2.11-.27,1.63,6.33s.14.53.33.6L67,91.43l-1.83.24L65,90.33s.32-.22,0-.94l-1,.12s-.06.79.29.94l.17,1.31-1.57.2-.18-1.34s.13-.11.14-.64Zm1.11,4.65.87-.1L64,85.16l-.25,0Z"/><path class="6f8d8923-7a26-424a-9e5a-c790a7d37092" d="M38.42,83.14l2.46.31s1.43,0,1.16,2.29l-.53,4.15s-.19,2.16-1.71,2l-2.44-.31.17-1.32s.21,0,.3-.66l.55-4.37s.1-.53-.13-.74Zm.74,7.07.3,0c.65.08.69-.75.69-.75l.45-3.56c.11-1-.49-.94-.49-.94l-.28,0Z"/><path class="6f8d8923-7a26-424a-9e5a-c790a7d37092" d="M42.71,85.69s.06-2.25,2-2.15a1.87,1.87,0,0,1,1.76,2.26l-.32,4.36s0,2.36-2,2.23C42.18,92.27,42.38,90,42.38,90Zm1.08,4.37s-.12.65.39.69.53-.68.53-.68L45,85.8s0-.63-.43-.66-.49.58-.49.58Z"/><path class="6f8d8923-7a26-424a-9e5a-c790a7d37092" d="M75.44,83.32s-.7-2.14,1.12-2.69A1.88,1.88,0,0,1,79,82.16l1.19,4.2s.8,2.23-1.16,2.8-2.4-1.68-2.4-1.68ZM78,87.06s.12.65.61.52.26-.83.26-.83l-1.15-4.11s-.26-.59-.63-.48-.27.72-.27.72Z"/><path class="6f8d8923-7a26-424a-9e5a-c790a7d37092" d="M84.18,80.64s-.93-2,.82-2.79a1.87,1.87,0,0,1,2.57,1.25l1.64,4.05s1,2.13-.85,2.9-2.57-1.4-2.57-1.4Zm2.9,3.44s.18.64.66.45.17-.84.17-.84l-1.6-4s-.31-.56-.67-.41-.19.75-.19.75Z"/><path class="6f8d8923-7a26-424a-9e5a-c790a7d37092" d="M47.12,84l1.77,0,0,1.37s-.18.1-.2.58l-.14,5h.3s.54.06.58-.7l.06-1.68,1.19,0-.11,4-3.65-.1,0-1.37s.2,0,.22-.62l.13-4.53a.9.9,0,0,0-.17-.61Z"/><path class="6f8d8923-7a26-424a-9e5a-c790a7d37092" d="M51.31,84l3.78-.06,0,2.69-1.26,0,0-.54s0-.56-.51-.56H53l0,1.87,1,0,0,1.43H53l0,2h.31a.59.59,0,0,0,.56-.62v-.7l1.27,0,0,2.89-3.77.06,0-1.35s.17,0,.17-.68L51.54,86a.87.87,0,0,0-.2-.63Z"/><path class="6f8d8923-7a26-424a-9e5a-c790a7d37092" d="M66.29,83l2.4-.45s1.29-.25,1.7,1.44a13.69,13.69,0,0,1,.42,2.22s.38,1.93-1,2.2l-.94.19L69,89s.06.47.29.62L69.52,91l-1.74.31L67.53,90s.16-.12.07-.68l-.79-4.38a1,1,0,0,0-.29-.63Zm2.33,4,.4-.08c.53-.12.35-.9.35-.9a13.85,13.85,0,0,0-.29-1.46.56.56,0,0,0-.61-.43l-.35.07Z"/><path class="6f8d8923-7a26-424a-9e5a-c790a7d37092" d="M70.57,82.21,73,81.65s1.27-.31,1.76,1.36a13,13,0,0,1,.53,2.2s.47,1.9-.88,2.24l-.93.23.12.49s.08.46.32.6l.31,1.32-1.72.39-.31-1.32s.15-.13,0-.69l-1-4.34a1.08,1.08,0,0,0-.32-.61Zm2.53,3.94.39-.1c.53-.14.3-.91.3-.91a13.77,13.77,0,0,0-.35-1.45.58.58,0,0,0-.63-.41l-.35.09Z"/><path class="6f8d8923-7a26-424a-9e5a-c790a7d37092" d="M79,80.13l2.49-.82A1.25,1.25,0,0,1,83,80a4.48,4.48,0,0,1,.62,1.65s.31,1-.31,1.42l.07.21a.94.94,0,0,1,1,.74l.36,1.07s.16.47.41.55l.43,1.27-1.46.49A13.34,13.34,0,0,1,83.55,86l-.37-1.09s-.28-.7-.79-.53l-.24.09.46,1.39s.13.4.35.49l.44,1.29-1.67.57-.44-1.28s.15-.11,0-.65l-1.44-4.32a.78.78,0,0,0-.36-.52Zm2.65,2.92.36-.12c.4-.14.34-.6.3-.74a3.24,3.24,0,0,0-.34-.93.55.55,0,0,0-.62-.31l-.37.14Z"/><path class="6f8d8923-7a26-424a-9e5a-c790a7d37092" d="M12.49,63.27l-1.91,1.11L13,67.9l9.44,1.4c-.6-1.17-1.17-2.35-1.7-3.53Z"/><path class="6f8d8923-7a26-424a-9e5a-c790a7d37092" d="M13.68,56.6l-3.3.76,2.43,4.82,7.28,2.22c-.78-1.82-1.49-3.65-2.1-5.47Z"/><path class="6f8d8923-7a26-424a-9e5a-c790a7d37092" d="M23,70.5,12.89,69l-1.51,1.63L13.76,73l10.5-.3-.4-.69Z"/><path class="6f8d8923-7a26-424a-9e5a-c790a7d37092" d="M91.53,63.27l1.9,1.11L91.05,67.9l-9.44,1.4c.6-1.17,1.17-2.35,1.71-3.53Z"/><path class="6f8d8923-7a26-424a-9e5a-c790a7d37092" d="M90.33,56.6l3.3.76-2.42,4.82L83.92,64.4c.79-1.82,1.49-3.65,2.1-5.47Z"/><path class="6f8d8923-7a26-424a-9e5a-c790a7d37092" d="M81,70.5,91.13,69l1.51,1.63L90.25,73l-10.5-.3c.14-.23.27-.46.4-.69Z"/><path class="6f8d8923-7a26-424a-9e5a-c790a7d37092" d="M25.3,74.46a2.39,2.39,0,0,0-.13-.21l-7,1.61c2.7,1.08,5.46,2,8.28,2.84l-1.77-2.84Z"/><path class="6f8d8923-7a26-424a-9e5a-c790a7d37092" d="M77.43,78.74a86,86,0,0,0,8.42-2.88l-7-1.61-.2.32.58,1.29Z"/><path class="6f8d8923-7a26-424a-9e5a-c790a7d37092" d="M31.68,78.2a50,50,0,0,1-5.54-1.84l1.73,2.72c1.61.43,3.36.84,5.23,1.23Z"/><path class="6f8d8923-7a26-424a-9e5a-c790a7d37092" d="M77.75,76.36a51.37,51.37,0,0,1-5.54,1.85l-1.43,2.12c1.87-.38,3.62-.8,5.23-1.22Z"/><path class="6f8d8923-7a26-424a-9e5a-c790a7d37092" d="M73.11,17.64,69.2,11.42a12.32,12.32,0,0,0,4.09-2.58,19.93,19.93,0,0,1-6.61.61c1.58-.44,6.52-2.79,8-5.4a26.12,26.12,0,0,1-6.4.81c-4.21,0-4.78-1.6-16.3-1.6s-12.09,1.6-16.3,1.6a26.12,26.12,0,0,1-6.4-.81c1.5,2.61,6.44,5,8,5.4a19.93,19.93,0,0,1-6.61-.61,12.32,12.32,0,0,0,4.09,2.58l-3.91,6.22-14.58,3.9V41c0,9.35,3.15,20.09,8.87,30.23l.88,1.5.73-1.62a77.93,77.93,0,0,1-4.44-9c-.31-.75-.6-1.51-.88-2.26a61.76,61.76,0,0,1-2.85-10.12h0A47.27,47.27,0,0,1,17.76,41V22.65l14.11-3.77L52,30.5,72.14,18.88l14,3.73L52,42.27V45L86.25,25.28V37.05L52,56.81v2.76L86.25,39.81V41A49.36,49.36,0,0,1,84.84,52.4L52,71.34V74.1L84,55.67a73.31,73.31,0,0,1-6.72,15.46l.64,1.73c.32-.53.63-1.06.94-1.6C84.54,61.12,87.69,50.38,87.69,41V21.54Z"/><path class="6f8d8923-7a26-424a-9e5a-c790a7d37092" d="M58.27,94c-2,1.72-4.07,3.39-6.26,5-2.19-1.6-4.28-3.27-6.26-5,0,0-1,0-2.38-.16a97,97,0,0,0,7.78,6.32l.85.62.85-.62a97,97,0,0,0,7.78-6.32C59.27,93.91,58.27,94,58.27,94Z"/><path class="6f8d8923-7a26-424a-9e5a-c790a7d37092" d="M61.45,80.24h0l-3.14,1.81c2.16-.15,4.25-.37,6.24-.65l4-2.3C66.27,79.58,63.9,80,61.45,80.24Z"/><path class="43747e6a-bbef-4e3a-ae7e-5f99ed37e8ba" d="M50,15.94c-4.37,1.11-5.06,1.08-7.32.29s-2.64-2.84-1.46-5.18Z"/><path class="43747e6a-bbef-4e3a-ae7e-5f99ed37e8ba" d="M54,15.94c4.37,1.11,5.06,1.08,7.32.29s2.64-2.84,1.46-5.18Z"/><path class="43747e6a-bbef-4e3a-ae7e-5f99ed37e8ba" d="M86.09,22.61l-14-3.73L52,30.5,18.62,49.77a61.76,61.76,0,0,0,2.85,10.12c.28.75.57,1.51.88,2.26L52,45V42.27Z"/><path class="43747e6a-bbef-4e3a-ae7e-5f99ed37e8ba" d="M58.27,94c-2.07.12-4.16.19-6.26.19s-4.19-.07-6.26-.19c2,1.72,4.07,3.39,6.26,5C54.2,97.35,56.28,95.68,58.27,94Z"/><path class="43747e6a-bbef-4e3a-ae7e-5f99ed37e8ba" d="M70.54,78.64l-2,.46-4.07,2.35.82-.11.32,0c.83-.12,1.64-.25,2.46-.39l.1,0c.33,0,.66-.12,1-.18Z"/><path class="43747e6a-bbef-4e3a-ae7e-5f99ed37e8ba" d="M52,74.1V71.34L84.84,52.4A49.36,49.36,0,0,0,86.25,41V39.81L31,71.68a67.87,67.87,0,0,0,20,3Z"/><path class="43747e6a-bbef-4e3a-ae7e-5f99ed37e8ba" d="M41.57,80.12a70,70,0,0,1-8.21-1.48l1.37,2,1.11.21.08,0c.79.14,1.59.26,2.38.38l.45.06.58.08Z"/><path class="987eff8b-4995-4e8b-9a38-521d9c929abe" d="M31.87,18.88,17.76,22.65V41a47.27,47.27,0,0,0,.86,8.74L52,30.5Z"/><path class="987eff8b-4995-4e8b-9a38-521d9c929abe" d="M52,56.81,86.25,37.05V25.28L22.35,62.15a77.93,77.93,0,0,0,4.44,9l.41-.91c1.2.53,2.48,1,3.82,1.45L52,59.57Z"/><path class="987eff8b-4995-4e8b-9a38-521d9c929abe" d="M51,74.69h1c9.08,0,17.54-1.47,24-4.15l.89-.41.4,1A73.31,73.31,0,0,0,84,55.67L52,74.1h0Z"/><path class="987eff8b-4995-4e8b-9a38-521d9c929abe" d="M52,80.76a83.66,83.66,0,0,1-10.39-.64l-2.24,1.3,1.75.23.29,0c.82.09,1.65.18,2.48.25h0c.89.07,1.77.14,2.66.19h.07c1.79.1,3.6.16,5.43.16s3.63-.06,5.43-.16h.05l.8-.06,3.16-1.82A86.11,86.11,0,0,1,52,80.76Z"/><path class="6f8d8923-7a26-424a-9e5a-c790a7d37092" d="M45.71,41.42c-.16-3.22-2.25-4.27-5.36-5.22-2.68-.82-4-1.53-4.11-3.57A2.78,2.78,0,0,1,39,29.51c2.65-.14,4,2.25,4.71,3.72l.68-.45-1.95-5.43c-.15,1.68-.93,1.76-1.12,1.77a3.2,3.2,0,0,1-1-.19,5.69,5.69,0,0,0-1.55-.18c-2.1.1-4.08,2.06-3.92,5.06.19,3.77,3.31,4.77,4.86,5.24,2.51.81,4.27,1.52,4.37,3.49a3.33,3.33,0,0,1-3,3.57,16,16,0,0,1-6.33-1,15,15,0,0,0,3.71-4.2L38,40.49a13,13,0,0,1-4.69,4,13.24,13.24,0,0,1-4.79-4l-.43.45a13.72,13.72,0,0,0,3.73,4.15,11.34,11.34,0,0,1-2.6.38c-3.67.21-5.8-4.25-6.08-8.31a12.37,12.37,0,0,1,.68-5.37,3.65,3.65,0,0,1,3-2.33A4.5,4.5,0,0,1,30,30.76a8.79,8.79,0,0,1,1.93,2.47l.7-.44-2.08-5.42A2.07,2.07,0,0,1,30,28.88a1,1,0,0,1-.54.25,2.85,2.85,0,0,1-1.1-.16,5.16,5.16,0,0,0-1.83-.21c-3.6.25-6,5.18-5.65,10.25.39,5.73,4,8.33,7.24,8.44a9.76,9.76,0,0,0,5.17-1.28c1.2.94,2.11,1.51,2.11,1.51a2.11,2.11,0,0,1,2.1-.89,10.42,10.42,0,0,1,1.34.21,11.67,11.67,0,0,0,2.53.06C43.47,47,45.88,44.78,45.71,41.42Z"/><polygon class="6f8d8923-7a26-424a-9e5a-c790a7d37092" points="31.05 64.09 28.59 64.38 28.21 62.04 27.84 64.38 25.38 64.09 27.61 65.09 26.46 67.42 28.21 65.53 29.97 67.42 28.82 65.09 31.05 64.09"/><polygon class="6f8d8923-7a26-424a-9e5a-c790a7d37092" points="36.45 60.97 33.99 61.26 33.62 58.92 33.25 61.26 30.78 60.97 33.01 61.97 31.86 64.31 33.62 62.41 35.38 64.31 34.22 61.97 36.45 60.97"/><polygon class="6f8d8923-7a26-424a-9e5a-c790a7d37092" points="41.86 57.85 39.39 58.14 39.02 55.8 38.65 58.14 36.19 57.85 38.42 58.85 37.26 61.19 39.02 59.29 40.78 61.19 39.63 58.85 41.86 57.85"/><polygon class="6f8d8923-7a26-424a-9e5a-c790a7d37092" points="47.26 54.74 44.8 55.02 44.42 52.69 44.05 55.02 41.59 54.74 43.82 55.73 42.66 58.07 44.42 56.17 46.18 58.07 45.03 55.73 47.26 54.74"/><polygon class="6f8d8923-7a26-424a-9e5a-c790a7d37092" points="52.66 51.62 50.2 51.91 49.83 49.57 49.45 51.91 46.99 51.62 49.22 52.62 48.07 54.95 49.83 53.05 51.59 54.95 50.43 52.62 52.66 51.62"/><polygon class="6f8d8923-7a26-424a-9e5a-c790a7d37092" points="58.07 48.5 55.6 48.79 55.23 46.45 54.86 48.79 52.39 48.5 54.62 49.5 53.47 51.83 55.23 49.94 56.99 51.83 55.83 49.5 58.07 48.5"/><polygon class="6f8d8923-7a26-424a-9e5a-c790a7d37092" points="63.47 45.38 61 45.67 60.63 43.33 60.26 45.67 57.8 45.38 60.03 46.38 58.87 48.71 60.63 46.82 62.39 48.71 61.24 46.38 63.47 45.38"/><polygon class="6f8d8923-7a26-424a-9e5a-c790a7d37092" points="68.87 42.26 66.41 42.55 66.03 40.21 65.66 42.55 63.2 42.26 65.43 43.26 64.28 45.59 66.03 43.7 67.79 45.59 66.64 43.26 68.87 42.26"/><polygon class="6f8d8923-7a26-424a-9e5a-c790a7d37092" points="74.27 39.15 71.81 39.43 71.44 37.1 71.06 39.43 68.6 39.15 70.83 40.14 69.68 42.48 71.44 40.58 73.2 42.48 72.04 40.14 74.27 39.15"/><polygon class="6f8d8923-7a26-424a-9e5a-c790a7d37092" points="79.68 36.03 77.21 36.31 76.84 33.98 76.47 36.31 74 36.03 76.23 37.02 75.08 39.36 76.84 37.46 78.6 39.36 77.44 37.02 79.68 36.03"/><polygon class="6f8d8923-7a26-424a-9e5a-c790a7d37092" points="85.08 32.91 82.61 33.2 82.24 30.86 81.87 33.2 79.41 32.91 81.64 33.91 80.48 36.24 82.24 34.34 84 36.24 82.85 33.91 85.08 32.91"/></g></g></svg>